<svg xmlns="http://www.w3.org/2000/svg" xmlns:xlink="http://www.w3.org/1999/xlink" width="50" zoomAndPan="magnify" viewBox="0 0 37.5 37.499999" height="50" preserveAspectRatio="xMidYMid meet" version="1.0"><defs><g/></defs><g fill="currentColor" fill-opacity="1"><g transform="translate(3.75, 25.675027)"><g><path d="M 11.007812 -9.617188 L 4.261719 -9.617188 L 4.261719 -16.089844 L 1.960938 -16.089844 L 1.960938 0 L 4.261719 0 L 4.261719 -7.339844 L 11.007812 -7.339844 L 11.007812 0 L 13.332031 0 L 13.332031 -16.089844 L 11.007812 -16.089844 Z M 11.007812 -9.617188 "/></g></g></g><g fill="currentColor" fill-opacity="1"><g transform="translate(19.036215, 25.675027)"><g><path d="M 7.796875 -15.953125 L 1.960938 -15.953125 L 1.960938 0 L 4.285156 0 L 4.285156 -5.3125 L 7.796875 -5.3125 C 11.238281 -5.3125 12.96875 -7.953125 12.96875 -10.621094 C 12.96875 -13.289062 11.238281 -15.953125 7.796875 -15.953125 Z M 7.796875 -7.589844 L 4.285156 -7.589844 L 4.285156 -13.628906 L 7.796875 -13.628906 C 9.730469 -13.628906 10.691406 -12.125 10.691406 -10.597656 C 10.691406 -9.09375 9.730469 -7.589844 7.796875 -7.589844 Z M 7.796875 -7.589844 "/></g></g></g><g fill="currentColor" fill-opacity="1"><g transform="translate(32.566403, 25.675027)"><g/></g></g><g fill="currentColor" fill-opacity="1"><g transform="translate(16.043411, 25.656446)"><g><path d="M 2.203125 4.34375 C 2.203125 3.957031 2.125 3.644531 1.96875 3.40625 C 1.8125 3.175781 1.59375 3.0625 1.3125 3.0625 L 0 3.0625 C -0.488281 3.0625 -0.851562 2.972656 -1.09375 2.796875 C -1.34375 2.628906 -1.523438 2.347656 -1.640625 1.953125 C -1.753906 1.566406 -1.8125 1.03125 -1.8125 0.34375 L -0.34375 0.34375 C -0.332031 0.726562 -0.28125 0.988281 -0.1875 1.125 C -0.101562 1.269531 0.03125 1.34375 0.21875 1.34375 L 1.671875 1.34375 C 2.046875 1.34375 2.335938 1.441406 2.546875 1.640625 C 2.753906 1.835938 2.894531 2.160156 2.96875 2.609375 L 3.03125 2.609375 C 3.09375 2.171875 3.226562 1.847656 3.4375 1.640625 C 3.65625 1.441406 3.960938 1.34375 4.359375 1.34375 L 5.78125 1.34375 C 5.925781 1.34375 6.035156 1.304688 6.109375 1.234375 C 6.179688 1.171875 6.234375 1.085938 6.265625 0.984375 C 6.304688 0.878906 6.332031 0.664062 6.34375 0.34375 L 7.8125 0.34375 C 7.8125 1.03125 7.753906 1.566406 7.640625 1.953125 C 7.535156 2.347656 7.363281 2.628906 7.125 2.796875 C 6.882812 2.972656 6.519531 3.0625 6.03125 3.0625 L 4.6875 3.0625 C 4.40625 3.0625 4.1875 3.175781 4.03125 3.40625 C 3.875 3.632812 3.796875 3.945312 3.796875 4.34375 Z M 2.203125 4.34375 "/></g></g></g></svg>